<?xml version="1.0" encoding="UTF-8" standalone="no"?>
<!-- filepath: resources/django.svg -->

<svg
   width="128"
   height="128"
   viewBox="0 0 128 128"
   version="1.1"
   id="svg12"
   sodipodi:docname="django.svg"
   inkscape:version="1.4 (86a8ad7, 2024-10-11)"
   xmlns:inkscape="http://www.inkscape.org/namespaces/inkscape"
   xmlns:sodipodi="http://sodipodi.sourceforge.net/DTD/sodipodi-0.dtd"
   xmlns="http://www.w3.org/2000/svg"
   xmlns:svg="http://www.w3.org/2000/svg">
  <sodipodi:namedview
     id="namedview12"
     pagecolor="#ffffff"
     bordercolor="#000000"
     borderopacity="0.25"
     inkscape:showpageshadow="2"
     inkscape:pageopacity="0.0"
     inkscape:pagecheckerboard="0"
     inkscape:deskcolor="#d1d1d1"
     inkscape:zoom="4.4580873"
     inkscape:cx="1.4580244"
     inkscape:cy="63.367983"
     inkscape:window-width="1920"
     inkscape:window-height="1009"
     inkscape:window-x="-8"
     inkscape:window-y="-4"
     inkscape:window-maximized="1"
     inkscape:current-layer="svg12" />
  <!-- Fondo con gradiente -->
  <defs
     id="defs2">
    <linearGradient
       id="bgGradient"
       x1="3.5"
       y1="3.5"
       x2="124.5"
       y2="124.5"
       gradientUnits="userSpaceOnUse"
       gradientTransform="translate(0)">
      <stop
         offset="0%"
         style="stop-color:#ffffff;stop-opacity:1"
         id="stop1" />
      <stop
         offset="100%"
         style="stop-color:#f4f4f4;stop-opacity:1"
         id="stop2" />
    </linearGradient>
  </defs>
  <circle
     cx="64"
     cy="30"
     r="28"
     fill="white"
     fill-opacity="0.15"
     id="circle12" />
  <!-- Fondo circular con sombra suave -->
  <circle
     cx="64"
     cy="64"
     r="60"
     fill="url(#bgGradient)"
     stroke="#e0e0e0"
     stroke-width="1"
     id="circle2"
     style="fill:url(#bgGradient)" />
  <!-- Logo de Django estilizado (D) -->
  <!-- Estructura de árbol (nodos y conexiones) -->
  <!-- Nodo principal -->
  <!-- Líneas de conexión -->
  <!-- Nodos secundarios -->
  <!-- Líneas de conexión a nodos terciarios -->
  <!-- Nodos terciarios -->
  <!-- Brillo en la parte superior (efecto visual) -->
  <rect
     width="64.931412"
     height="64.931412"
     fill="none"
     id="rect1"
     x="6.972198"
     y="8.0937567"
     style="stroke-width:1.35274" />
  <g
     id="g14"
     transform="translate(-6.9899867)">
    <g
       id="g12"
       transform="translate(-0.9262706,1.1400845)">
      <path
         fill="#092e20"
         d="m 54.868713,20.089901 h 13.98705 V 84.83157 c -7.175159,1.362265 -12.443154,1.907171 -18.16465,1.907171 -17.075429,-5.92e-4 -25.976119,-7.719484 -25.976119,-22.524478 0,-14.259495 9.44618,-23.522876 24.068368,-23.522876 2.270434,0 3.995965,0.181049 6.085351,0.725954 z m 0,32.588794 C 53.234,52.134381 51.871738,51.952749 50.146209,51.952749 c -7.084343,0 -11.171713,4.359818 -11.171713,11.988481 0,7.448192 3.905735,11.534976 11.080895,11.534976 1.543309,0 2.815339,-0.09075 4.813322,-0.362683 z"
         id="path1"
         style="stroke-width:0.585919" />
      <path
         fill="#092e20"
         d="m 91.106612,41.689793 v 32.423568 c 0,11.171713 -0.817357,16.529941 -3.269427,21.162212 -2.27102,4.45122 -5.26858,7.265977 -11.444163,10.354357 l -12.98806,-6.17617 c 6.176169,-2.906163 9.173143,-5.448458 11.080308,-9.355364 1.998569,-3.995963 2.634877,-8.628246 2.634877,-20.798358 V 41.689793 Z M 77.120147,20.164313 H 91.106612 V 34.514634 H 77.120147 Z"
         id="path2"
         style="stroke-width:0.585919" />
    </g>
    <path
       d="m 99.265219,72.218516 h 16.823141 a 2.1028933,2.1028933 0 0 0 2.10289,-2.102894 v -8.411573 a 2.1028933,2.1028933 0 0 0 -2.10289,-2.102892 H 99.265219 a 2.1028933,2.1028933 0 0 0 -2.102892,2.102892 v 2.102894 h -8.411575 v -8.411574 h 6.30868 a 2.1028933,2.1028933 0 0 0 2.102895,-2.102892 V 44.880905 A 2.1028933,2.1028933 0 0 0 95.059432,42.77801 H 78.236288 a 2.1028933,2.1028933 0 0 0 -2.102894,2.102895 v 8.411572 a 2.1028933,2.1028933 0 0 0 2.102894,2.102892 h 6.308678 v 27.337613 a 2.1028933,2.1028933 0 0 0 2.102895,2.1029 h 10.514466 v 2.102877 a 2.1028933,2.1028933 0 0 0 2.102892,2.102902 h 16.823141 a 2.1028933,2.1028933 0 0 0 2.10289,-2.102902 v -8.411564 a 2.1028933,2.1028933 0 0 0 -2.10289,-2.102893 H 99.265219 a 2.1028933,2.1028933 0 0 0 -2.102892,2.102893 v 2.102893 H 88.750752 V 68.01273 h 8.411575 v 2.102892 a 2.1028933,2.1028933 0 0 0 2.102892,2.102894 z"
       id="path1-0"
       style="fill:#44b78b;fill-opacity:1;stroke-width:1.05145" />
  </g>
</svg>
